# xmcd CD database file
#
# Track frame offsets:
#	150
#	12075
#	21775
#	31425
#	45187
#	62790
#	81375
#	99182
#	118362
#	134462
#	149812
#	163682
#	181220
#	197372
#	208760
#	228900
#	244460
#	257222
#
# Disc length: 3616 seconds
#
# Revision: 16
# Processed by: cddbd v1.5.2PL0 Copyright (c) Steve Scherf et al.
# Submitted via: CDex 1.70beta2
#
DISCID=fe0e1e12
DTITLE=Ella Fitzgerald - Nelson Riddle - The George and Ira Gershwin Songbook 4 1998 R
DYEAR=1959
DGENRE=Jazz
TTITLE0=Somebody Loves Me
TTITLE1=Cheerful Little Earful
TTITLE2=But Not For Me (45 RPM Take)
TTITLE3=Lorelei (Alternate Take)
TTITLE4=Love Is Here To Stay (Partial Alternate Take)
TTITLE5=Oh, Lady Be Good! (Alternate Take)
TTITLE6=Oh, Lady Be Good! (Alternate Take)
TTITLE7=Oh, Lady Be Good! (Alternate Take)
TTITLE8=But Not For Me (Mono Mix)
TTITLE9=Fascinating Rhythm (Mono Mix)
TTITLE10=They All Laughed (Mono Mix)
TTITLE11=The Man I Love (Mono Mix)
TTITLE12=Nice Work If You Can Get It (Mono Mix)
TTITLE13=Clap Yo' Hands (Mono Mix)
TTITLE14=Let's Call The Whole Thing Off (Mono Mix)
TTITLE15=I Was Doing All Right (Mono Mix)
TTITLE16=He Loves And She Loves (Mono Mix)
TTITLE17=(I've Got) Beginner's Luck (Mono Mix)
EXTD=YEAR: 1959
EXTT0=
EXTT1=
EXTT2=
EXTT3=
EXTT4=
EXTT5=
EXTT6=
EXTT7=
EXTT8=
EXTT9=
EXTT10=
EXTT11=
EXTT12=
EXTT13=
EXTT14=
EXTT15=
EXTT16=
EXTT17=
PLAYORDER=
